<svg xmlns="http://www.w3.org/2000/svg" width="114" height="114" viewBox="0 0 114 114"><g transform="translate(10.695 28.521)"><path d="M92.129,15.13H6.565a3.565,3.565,0,0,1,0-7.13H92.129a3.565,3.565,0,1,1,0,7.13Z" transform="translate(-3 -8)" fill="#010336"/><path d="M92.129,22.13H6.565a3.565,3.565,0,1,1,0-7.13H92.129a3.565,3.565,0,1,1,0,7.13Z" transform="translate(-3 9.956)" fill="#010336"/><path d="M92.129,29.13H6.565a3.565,3.565,0,0,1,0-7.13H92.129a3.565,3.565,0,1,1,0,7.13Z" transform="translate(-3 27.912)" fill="#010336"/></g><rect width="114" height="114" fill="none"/></svg>