<svg xmlns="http://www.w3.org/2000/svg" width="69" height="69" viewBox="0 0 69 69"><g transform="translate(6.426 17.136)"><path d="M56.55,12.284H5.142A2.142,2.142,0,0,1,5.142,8H56.55a2.142,2.142,0,0,1,0,4.284Z" transform="translate(-3 -8)" fill="#010336"/><path d="M56.55,19.284H5.142a2.142,2.142,0,1,1,0-4.284H56.55a2.142,2.142,0,1,1,0,4.284Z" transform="translate(-3 -0.006)" fill="#010336"/><path d="M56.55,26.284H5.142a2.142,2.142,0,0,1,0-4.284H56.55a2.142,2.142,0,0,1,0,4.284Z" transform="translate(-3 7.988)" fill="#010336"/></g><rect width="69" height="69" fill="none"/></svg>